<svg width="175" height="75" viewBox="0 0 175 75" fill="none" xmlns="http://www.w3.org/2000/svg">
<path d="M173.438 37.5C173.438 42.4524 171.11 47.2257 166.788 51.6275C162.463 56.0324 156.172 60.0299 148.345 63.4015C132.693 70.1437 111.024 74.3304 87.0536 74.3304C63.0832 74.3304 41.414 70.1437 25.7623 63.4015C17.9354 60.0299 11.644 56.0324 7.31892 51.6275C2.9968 47.2257 0.669643 42.4524 0.669643 37.5C0.669643 32.5476 2.9968 27.7743 7.31892 23.3725C11.644 18.9676 17.9354 14.9701 25.7623 11.5985C41.414 4.85626 63.0832 0.669643 87.0536 0.669643C111.024 0.669643 132.693 4.85626 148.345 11.5985C156.172 14.9701 162.463 18.9676 166.788 23.3725C171.11 27.7743 173.438 32.5476 173.438 37.5Z" fill="black" stroke="#C9C9C9" stroke-width="1.33929"/>
<path d="M65.3036 47.0892C64.3036 47.0892 63.8036 46.5892 63.8036 45.5892V29.7053C63.8036 28.7053 64.3036 28.2053 65.3036 28.2053H71.6786C73.6429 28.2053 75.1607 28.6428 76.2321 29.5178C77.3214 30.3749 77.8661 31.5803 77.8661 33.1339C77.8661 34.1517 77.5982 35.0267 77.0625 35.7589C76.5268 36.491 75.7946 37.0267 74.8661 37.366C75.9554 37.6517 76.8036 38.1785 77.4107 38.9464C78.0179 39.7142 78.3214 40.6874 78.3214 41.866C78.3214 43.5446 77.7589 44.8392 76.6339 45.7499C75.5268 46.6428 73.9821 47.0892 72 47.0892H65.3036ZM66.4821 36.4553H71.25C73.8571 36.4553 75.1607 35.4374 75.1607 33.4017C75.1607 31.366 73.8571 30.3482 71.25 30.3482H66.4821V36.4553ZM66.4821 44.9464H71.6786C74.3036 44.9464 75.6161 43.8839 75.6161 41.7589C75.6161 39.6517 74.3036 38.5982 71.6786 38.5982H66.4821V44.9464ZM87.7672 47.3303C84.6065 47.3303 83.0261 45.5714 83.0261 42.0535V35.1964C83.0261 34.2857 83.4725 33.8303 84.3654 33.8303C85.2761 33.8303 85.7315 34.2857 85.7315 35.1964V42.0803C85.7315 43.1339 85.9457 43.9107 86.3743 44.4107C86.8029 44.9107 87.4815 45.1607 88.41 45.1607C89.4279 45.1607 90.2493 44.8214 90.8743 44.1428C91.5172 43.4642 91.8386 42.5535 91.8386 41.4107V35.1964C91.8386 34.2857 92.294 33.8303 93.2047 33.8303C94.0975 33.8303 94.544 34.2857 94.544 35.1964V45.9107C94.544 46.8214 94.1065 47.2767 93.2315 47.2767C92.3565 47.2767 91.919 46.8214 91.919 45.9107V44.9999C91.4904 45.7678 90.919 46.3482 90.2047 46.741C89.4904 47.1339 88.6779 47.3303 87.7672 47.3303ZM102.776 52.0982C102.276 52.0982 101.928 51.9107 101.732 51.5357C101.553 51.1785 101.571 50.7589 101.785 50.2767L103.365 46.741L98.5976 35.6785C98.3833 35.1964 98.3744 34.7678 98.5708 34.3928C98.7851 34.0178 99.1958 33.8303 99.803 33.8303C100.124 33.8303 100.383 33.9107 100.58 34.0714C100.794 34.2321 100.982 34.5089 101.142 34.9017L104.812 43.9553L108.535 34.9017C108.696 34.491 108.883 34.2142 109.098 34.0714C109.312 33.9107 109.607 33.8303 109.982 33.8303C110.464 33.8303 110.794 34.0178 110.973 34.3928C111.151 34.7678 111.142 35.1874 110.946 35.6517L104.249 51.0535C104.071 51.4642 103.865 51.741 103.633 51.8839C103.419 52.0267 103.133 52.0982 102.776 52.0982Z" fill="white"/>
</svg>
