<svg width="352" height="68" viewBox="0 0 352 68" fill="none" xmlns="http://www.w3.org/2000/svg">
<g filter="url(#filter0_d_2_69)">
<path d="M107.917 2L98 17.3093L133 57L168 17.3093L158.083 2M107.917 2H158.083M107.917 2L133 15.0412L158.083 2" stroke="white" stroke-width="3"/>
<path d="M62.356 29.928C62.356 45.6283 49.6283 58.356 33.928 58.356C18.2276 58.356 5.5 45.6283 5.5 29.928C5.5 14.2276 18.2276 1.5 33.928 1.5C41.4902 1.5 48.3601 4.4508 53.4541 9.26677C58.9376 14.451 62.356 21.7891 62.356 29.928Z" stroke="white" stroke-width="3"/>
<path d="M49.8004 55.1107C48.9175 48.3018 44.5435 33.6722 34.1108 29.6249" stroke="white" stroke-width="3"/>
<path d="M5.20943 22.3644C10.6484 26.5547 24.0859 33.8066 34.3248 29.2914" stroke="white" stroke-width="3"/>
<mask id="path-5-inside-1_2_69" fill="white">
<path fill-rule="evenodd" clip-rule="evenodd" d="M262.797 27.2842C259.838 29.1127 256.351 30.1679 252.617 30.1679C241.907 30.1679 233.224 21.4852 233.224 10.7746C233.224 6.86871 234.379 3.23256 236.365 0.188809C235.256 0.0640696 234.128 0 232.985 0C216.456 0 203.057 13.3992 203.057 29.928C203.057 46.4568 216.456 59.856 232.985 59.856C249.513 59.856 262.913 46.4568 262.913 29.928C262.913 29.0371 262.874 28.1553 262.797 27.2842Z"/>
</mask>
<path d="M262.797 27.2842L265.786 27.0227L265.362 22.1732L261.22 24.7322L262.797 27.2842ZM236.365 0.188809L238.877 1.8285L241.538 -2.24852L236.7 -2.79241L236.365 0.188809ZM261.22 24.7322C258.722 26.2762 255.778 27.1679 252.617 27.1679V33.1679C256.924 33.1679 260.955 31.9492 264.374 29.8363L261.22 24.7322ZM252.617 27.1679C243.563 27.1679 236.224 19.8283 236.224 10.7746H230.224C230.224 23.1421 240.25 33.1679 252.617 33.1679V27.1679ZM236.224 10.7746C236.224 7.46852 237.199 4.39946 238.877 1.8285L233.853 -1.45088C231.558 2.06566 230.224 6.26891 230.224 10.7746H236.224ZM232.985 3C234.015 3 235.031 3.05777 236.03 3.17003L236.7 -2.79241C235.48 -2.92964 234.24 -3 232.985 -3V3ZM206.057 29.928C206.057 15.0561 218.113 3 232.985 3V-3C214.799 -3 200.057 11.7424 200.057 29.928H206.057ZM232.985 56.856C218.113 56.856 206.057 44.7999 206.057 29.928H200.057C200.057 48.1136 214.799 62.856 232.985 62.856V56.856ZM259.913 29.928C259.913 44.7999 247.857 56.856 232.985 56.856V62.856C251.17 62.856 265.913 48.1136 265.913 29.928H259.913ZM259.809 27.5458C259.878 28.33 259.913 29.1246 259.913 29.928H265.913C265.913 28.9497 265.87 27.9806 265.786 27.0227L259.809 27.5458Z" fill="white" mask="url(#path-5-inside-1_2_69)"/>
</g>
<defs>
<filter id="filter0_d_2_69" x="0" y="0" width="356" height="68" filterUnits="userSpaceOnUse" color-interpolation-filters="sRGB">
<feFlood flood-opacity="0" result="BackgroundImageFix"/>
<feColorMatrix in="SourceAlpha" type="matrix" values="0 0 0 0 0 0 0 0 0 0 0 0 0 0 0 0 0 0 127 0" result="hardAlpha"/>
<feOffset dy="4"/>
<feGaussianBlur stdDeviation="2"/>
<feComposite in2="hardAlpha" operator="out"/>
<feColorMatrix type="matrix" values="0 0 0 0 0 0 0 0 0 0 0 0 0 0 0 0 0 0 0.25 0"/>
<feBlend mode="normal" in2="BackgroundImageFix" result="effect1_dropShadow_2_69"/>
<feBlend mode="normal" in="SourceGraphic" in2="effect1_dropShadow_2_69" result="shape"/>
</filter>
</defs>
</svg>
