<svg width="234" height="90" viewBox="0 0 234 90" fill="none" xmlns="http://www.w3.org/2000/svg">
<path d="M233.277 45C233.277 50.9393 230.15 56.6787 224.319 61.981C218.488 67.2834 210.01 72.0918 199.472 76.1448C178.401 84.2489 149.243 89.2768 117 89.2768C84.7569 89.2768 55.5989 84.2489 34.5281 76.1448C23.9903 72.0918 15.5122 67.2834 9.681 61.981C3.85004 56.6787 0.723214 50.9393 0.723214 45C0.723214 39.0607 3.85004 33.3213 9.681 28.019C15.5122 22.7166 23.9903 17.9082 34.5281 13.8552C55.5989 5.75106 84.7569 0.723214 117 0.723214C149.243 0.723214 178.401 5.75106 199.472 13.8552C210.01 17.9082 218.488 22.7166 224.319 28.019C230.15 33.3213 233.277 39.0607 233.277 45Z" fill="#141414" stroke="white" stroke-width="1.44643"/>
<path d="M75.888 53.216C74.048 53.216 72.496 52.872 71.232 52.184C69.968 51.48 69.008 50.48 68.352 49.184C67.712 47.888 67.392 46.344 67.392 44.552C67.392 42.776 67.72 41.24 68.376 39.944C69.032 38.632 69.984 37.624 71.232 36.92C72.48 36.216 73.976 35.864 75.72 35.864C76.68 35.864 77.616 35.992 78.528 36.248C79.456 36.488 80.312 36.888 81.096 37.448C81.368 37.64 81.52 37.88 81.552 38.168C81.6 38.44 81.552 38.704 81.408 38.96C81.28 39.2 81.088 39.368 80.832 39.464C80.576 39.544 80.288 39.488 79.968 39.296C79.344 38.864 78.688 38.552 78 38.36C77.312 38.152 76.552 38.048 75.72 38.048C73.848 38.048 72.424 38.616 71.448 39.752C70.472 40.872 69.984 42.472 69.984 44.552C69.984 46.68 70.48 48.296 71.472 49.4C72.48 50.504 73.984 51.056 75.984 51.056C77.2 51.056 78.408 50.856 79.608 50.456V45.92H76.512C75.824 45.92 75.48 45.6 75.48 44.96C75.48 44.352 75.824 44.048 76.512 44.048H80.664C81.352 44.048 81.696 44.392 81.696 45.08V51.128C81.696 51.736 81.472 52.128 81.024 52.304C80.336 52.576 79.528 52.8 78.6 52.976C77.672 53.136 76.768 53.216 75.888 53.216ZM91.5467 53.216C90.3627 53.216 89.3387 52.968 88.4747 52.472C87.6107 51.976 86.9387 51.28 86.4587 50.384C85.9947 49.472 85.7627 48.392 85.7627 47.144C85.7627 45.896 85.9947 44.824 86.4587 43.928C86.9387 43.016 87.6107 42.312 88.4747 41.816C89.3387 41.32 90.3627 41.072 91.5467 41.072C92.6987 41.072 93.7067 41.32 94.5707 41.816C95.4347 42.312 96.1067 43.016 96.5867 43.928C97.0667 44.824 97.3067 45.896 97.3067 47.144C97.3067 48.392 97.0667 49.472 96.5867 50.384C96.1067 51.28 95.4347 51.976 94.5707 52.472C93.7067 52.968 92.6987 53.216 91.5467 53.216ZM91.5467 51.344C92.5387 51.344 93.3387 50.984 93.9467 50.264C94.5547 49.544 94.8587 48.504 94.8587 47.144C94.8587 45.784 94.5547 44.752 93.9467 44.048C93.3387 43.328 92.5387 42.968 91.5467 42.968C90.5387 42.968 89.7307 43.328 89.1227 44.048C88.5147 44.752 88.2107 45.784 88.2107 47.144C88.2107 48.504 88.5147 49.544 89.1227 50.264C89.7307 50.984 90.5387 51.344 91.5467 51.344ZM114.661 53.216C113.557 53.216 112.493 53.088 111.469 52.832C110.461 52.576 109.581 52.192 108.829 51.68C108.525 51.472 108.341 51.224 108.277 50.936C108.213 50.632 108.237 50.36 108.349 50.12C108.477 49.864 108.661 49.688 108.901 49.592C109.157 49.496 109.445 49.552 109.765 49.76C110.485 50.224 111.245 50.568 112.045 50.792C112.845 51 113.717 51.104 114.661 51.104C116.021 51.104 117.021 50.864 117.661 50.384C118.317 49.888 118.645 49.248 118.645 48.464C118.645 47.824 118.413 47.32 117.949 46.952C117.485 46.568 116.709 46.264 115.621 46.04L113.053 45.512C111.533 45.192 110.397 44.664 109.645 43.928C108.909 43.192 108.541 42.2 108.541 40.952C108.541 39.944 108.805 39.056 109.333 38.288C109.877 37.52 110.629 36.928 111.589 36.512C112.549 36.08 113.653 35.864 114.901 35.864C115.893 35.864 116.821 35.992 117.685 36.248C118.565 36.504 119.349 36.896 120.037 37.424C120.309 37.616 120.469 37.848 120.517 38.12C120.565 38.392 120.525 38.648 120.397 38.888C120.269 39.112 120.077 39.264 119.821 39.344C119.565 39.424 119.269 39.36 118.933 39.152C118.309 38.736 117.669 38.44 117.013 38.264C116.357 38.072 115.645 37.976 114.877 37.976C113.693 37.976 112.749 38.24 112.045 38.768C111.357 39.296 111.013 40 111.013 40.88C111.013 41.552 111.229 42.088 111.661 42.488C112.093 42.888 112.813 43.192 113.821 43.4L116.365 43.928C117.965 44.264 119.157 44.784 119.941 45.488C120.725 46.176 121.117 47.112 121.117 48.296C121.117 49.288 120.853 50.152 120.325 50.888C119.797 51.624 119.053 52.2 118.093 52.616C117.133 53.016 115.989 53.216 114.661 53.216ZM126.087 53.168C125.287 53.168 124.887 52.76 124.887 51.944V37.136C124.887 36.32 125.287 35.912 126.087 35.912C126.903 35.912 127.311 36.32 127.311 37.136V43.112C127.711 42.44 128.247 41.936 128.919 41.6C129.607 41.248 130.375 41.072 131.223 41.072C133.991 41.072 135.375 42.64 135.375 45.776V51.944C135.375 52.76 134.975 53.168 134.175 53.168C133.359 53.168 132.951 52.76 132.951 51.944V45.92C132.951 44.912 132.751 44.176 132.351 43.712C131.967 43.248 131.359 43.016 130.527 43.016C129.551 43.016 128.767 43.328 128.175 43.952C127.599 44.56 127.311 45.368 127.311 46.376V51.944C127.311 52.76 126.903 53.168 126.087 53.168ZM145.003 53.216C143.819 53.216 142.795 52.968 141.931 52.472C141.067 51.976 140.395 51.28 139.915 50.384C139.451 49.472 139.219 48.392 139.219 47.144C139.219 45.896 139.451 44.824 139.915 43.928C140.395 43.016 141.067 42.312 141.931 41.816C142.795 41.32 143.819 41.072 145.003 41.072C146.155 41.072 147.163 41.32 148.027 41.816C148.891 42.312 149.563 43.016 150.043 43.928C150.523 44.824 150.763 45.896 150.763 47.144C150.763 48.392 150.523 49.472 150.043 50.384C149.563 51.28 148.891 51.976 148.027 52.472C147.163 52.968 146.155 53.216 145.003 53.216ZM145.003 51.344C145.995 51.344 146.795 50.984 147.403 50.264C148.011 49.544 148.315 48.504 148.315 47.144C148.315 45.784 148.011 44.752 147.403 44.048C146.795 43.328 145.995 42.968 145.003 42.968C143.995 42.968 143.187 43.328 142.579 44.048C141.971 44.752 141.667 45.784 141.667 47.144C141.667 48.504 141.971 49.544 142.579 50.264C143.187 50.984 143.995 51.344 145.003 51.344ZM155.885 57.488C155.085 57.488 154.685 57.08 154.685 56.264V42.344C154.685 41.528 155.077 41.12 155.861 41.12C156.661 41.12 157.061 41.528 157.061 42.344V43.256C157.413 42.584 157.933 42.056 158.621 41.672C159.309 41.272 160.093 41.072 160.973 41.072C162.013 41.072 162.917 41.32 163.685 41.816C164.469 42.312 165.069 43.016 165.485 43.928C165.917 44.824 166.133 45.896 166.133 47.144C166.133 48.392 165.917 49.472 165.485 50.384C165.069 51.296 164.469 52 163.685 52.496C162.917 52.976 162.013 53.216 160.973 53.216C160.109 53.216 159.333 53.032 158.645 52.664C157.973 52.28 157.461 51.76 157.109 51.104V56.264C157.109 57.08 156.701 57.488 155.885 57.488ZM160.373 51.344C161.381 51.344 162.181 50.984 162.773 50.264C163.381 49.544 163.685 48.504 163.685 47.144C163.685 45.784 163.381 44.752 162.773 44.048C162.181 43.328 161.381 42.968 160.373 42.968C159.365 42.968 158.557 43.328 157.949 44.048C157.357 44.752 157.061 45.784 157.061 47.144C157.061 48.504 157.357 49.544 157.949 50.264C158.557 50.984 159.365 51.344 160.373 51.344Z" fill="white"/>
</svg>
