<svg width="234" height="90" viewBox="0 0 234 90" fill="none" xmlns="http://www.w3.org/2000/svg">
<path d="M233.277 45C233.277 50.9393 230.15 56.6787 224.319 61.981C218.488 67.2834 210.01 72.0918 199.472 76.1448C178.401 84.2489 149.243 89.2768 117 89.2768C84.7569 89.2768 55.5989 84.2489 34.5281 76.1448C23.9903 72.0918 15.5122 67.2834 9.681 61.981C3.85004 56.6787 0.723214 50.9393 0.723214 45C0.723214 39.0607 3.85004 33.3213 9.681 28.019C15.5122 22.7166 23.9903 17.9082 34.5281 13.8552C55.5989 5.75106 84.7569 0.723214 117 0.723214C149.243 0.723214 178.401 5.75106 199.472 13.8552C210.01 17.9082 218.488 22.7166 224.319 28.019C230.15 33.3213 233.277 39.0607 233.277 45Z" fill="#141414" stroke="white" stroke-width="1.44643"/>
<path d="M80.0469 51.6006C79.3783 52.4723 78.4515 53.1325 77.2666 53.5811C76.0817 54.0296 74.736 54.2539 73.2295 54.2539C71.6807 54.2539 70.3096 53.9027 69.1162 53.2002C67.9229 52.4977 67.0003 51.4948 66.3486 50.1914C65.7054 48.8796 65.3711 47.3519 65.3457 45.6084V44.1611C65.3457 41.3682 66.0143 39.1888 67.3516 37.623C68.6888 36.0488 70.555 35.2617 72.9502 35.2617C75.0068 35.2617 76.6403 35.7695 77.8506 36.7852C79.0609 37.8008 79.7887 39.265 80.0342 41.1777H76.8857C76.5303 38.9518 75.2396 37.8389 73.0137 37.8389C71.5749 37.8389 70.4788 38.3594 69.7256 39.4004C68.9808 40.4329 68.5957 41.9521 68.5703 43.958V45.3799C68.5703 47.3773 68.9893 48.9303 69.8271 50.0391C70.6735 51.1393 71.8457 51.6895 73.3438 51.6895C74.9857 51.6895 76.1536 51.3171 76.8477 50.5723V46.9541H73.0391V44.5166H80.0469V51.6006ZM84.0002 47.0049C84.0002 45.6592 84.2668 44.4489 84.8 43.374C85.3332 42.2907 86.0822 41.4613 87.0471 40.8857C88.0119 40.3018 89.1206 40.0098 90.3732 40.0098C92.2268 40.0098 93.729 40.6064 94.8801 41.7998C96.0396 42.9932 96.6659 44.5758 96.759 46.5479L96.7717 47.2715C96.7717 48.6257 96.5093 49.8359 95.9846 50.9023C95.4683 51.9688 94.7235 52.7939 93.7502 53.3779C92.7854 53.9619 91.6682 54.2539 90.3986 54.2539C88.4605 54.2539 86.9074 53.6107 85.7395 52.3242C84.5799 51.0293 84.0002 49.307 84.0002 47.1572V47.0049ZM87.0852 47.2715C87.0852 48.6849 87.3771 49.7936 87.9611 50.5977C88.5451 51.3932 89.3576 51.791 90.3986 51.791C91.4396 51.791 92.2479 51.3848 92.8234 50.5723C93.4074 49.7598 93.6994 48.5706 93.6994 47.0049C93.6994 45.6169 93.399 44.5166 92.798 43.7041C92.2056 42.8916 91.3973 42.4854 90.3732 42.4854C89.3661 42.4854 88.5663 42.8874 87.9738 43.6914C87.3814 44.487 87.0852 45.6803 87.0852 47.2715ZM118.415 49.2393C118.415 48.4268 118.127 47.8005 117.551 47.3604C116.984 46.9202 115.956 46.4759 114.466 46.0273C112.977 45.5788 111.792 45.0794 110.912 44.5293C109.227 43.4714 108.385 42.0918 108.385 40.3906C108.385 38.901 108.99 37.6738 110.201 36.709C111.42 35.7441 112.998 35.2617 114.936 35.2617C116.223 35.2617 117.369 35.4987 118.377 35.9727C119.384 36.4466 120.175 37.1237 120.751 38.0039C121.326 38.8757 121.614 39.8447 121.614 40.9111H118.415C118.415 39.9463 118.11 39.193 117.501 38.6514C116.9 38.1012 116.036 37.8262 114.911 37.8262C113.861 37.8262 113.045 38.0505 112.461 38.499C111.885 38.9476 111.597 39.5739 111.597 40.3779C111.597 41.055 111.91 41.6221 112.537 42.0791C113.163 42.5277 114.196 42.9678 115.634 43.3994C117.073 43.8226 118.228 44.3092 119.1 44.8594C119.972 45.401 120.611 46.0273 121.017 46.7383C121.423 47.4408 121.627 48.266 121.627 49.2139C121.627 50.7542 121.034 51.9814 119.849 52.8955C118.673 53.8011 117.073 54.2539 115.05 54.2539C113.713 54.2539 112.482 54.0085 111.356 53.5176C110.239 53.0182 109.367 52.3327 108.741 51.4609C108.123 50.5892 107.814 49.5736 107.814 48.4141H111.026C111.026 49.4635 111.373 50.276 112.067 50.8516C112.761 51.4271 113.755 51.7148 115.05 51.7148C116.168 51.7148 117.005 51.4906 117.564 51.042C118.131 50.585 118.415 49.984 118.415 49.2393ZM128.487 41.7617C129.494 40.5938 130.768 40.0098 132.308 40.0098C135.237 40.0098 136.722 41.6813 136.764 45.0244V54H133.679V45.1387C133.679 44.1908 133.472 43.5221 133.057 43.1328C132.651 42.735 132.05 42.5361 131.255 42.5361C130.019 42.5361 129.096 43.0863 128.487 44.1865V54H125.402V34.5H128.487V41.7617ZM140.616 47.0049C140.616 45.6592 140.883 44.4489 141.416 43.374C141.949 42.2907 142.698 41.4613 143.663 40.8857C144.628 40.3018 145.737 40.0098 146.989 40.0098C148.843 40.0098 150.345 40.6064 151.496 41.7998C152.656 42.9932 153.282 44.5758 153.375 46.5479L153.388 47.2715C153.388 48.6257 153.125 49.8359 152.601 50.9023C152.084 51.9688 151.34 52.7939 150.366 53.3779C149.401 53.9619 148.284 54.2539 147.015 54.2539C145.076 54.2539 143.523 53.6107 142.355 52.3242C141.196 51.0293 140.616 49.307 140.616 47.1572V47.0049ZM143.701 47.2715C143.701 48.6849 143.993 49.7936 144.577 50.5977C145.161 51.3932 145.974 51.791 147.015 51.791C148.056 51.791 148.864 51.3848 149.439 50.5723C150.023 49.7598 150.315 48.5706 150.315 47.0049C150.315 45.6169 150.015 44.5166 149.414 43.7041C148.822 42.8916 148.013 42.4854 146.989 42.4854C145.982 42.4854 145.182 42.8874 144.59 43.6914C143.997 44.487 143.701 45.6803 143.701 47.2715ZM169.325 47.2715C169.325 49.3958 168.843 51.0928 167.878 52.3623C166.913 53.6234 165.618 54.2539 163.993 54.2539C162.487 54.2539 161.281 53.7588 160.375 52.7686V59.2812H157.29V40.2637H160.134L160.261 41.6602C161.167 40.5599 162.398 40.0098 163.955 40.0098C165.631 40.0098 166.943 40.6361 167.891 41.8887C168.847 43.1328 169.325 44.8636 169.325 47.0811V47.2715ZM166.253 47.0049C166.253 45.6338 165.978 44.5462 165.428 43.7422C164.886 42.9382 164.108 42.5361 163.092 42.5361C161.831 42.5361 160.925 43.0566 160.375 44.0977V50.1914C160.934 51.2578 161.848 51.791 163.117 51.791C164.099 51.791 164.865 51.3975 165.415 50.6104C165.974 49.8148 166.253 48.613 166.253 47.0049Z" fill="white"/>
</svg>
