<svg width="55" height="20" viewBox="0 0 55 20" fill="none" xmlns="http://www.w3.org/2000/svg">
<path d="M15.5181 19.5024H11.6639L4.16116 7.13568V19.5024H0.307007V0.707031H4.16116L11.6768 13.0996V0.707031H15.5181V19.5024Z" fill="#141414"/>
<path d="M20.1996 19.5024V0.707031H25.9551C27.5995 0.707031 29.0684 1.08139 30.3617 1.83011C31.6635 2.57022 32.6784 3.62875 33.4065 5.00571C34.1345 6.37405 34.4985 7.93173 34.4985 9.67874V10.5436C34.4985 12.2906 34.1387 13.844 33.4193 15.2038C32.7084 16.5635 31.7021 17.6177 30.4002 18.3665C29.0984 19.1152 27.6295 19.4938 25.9936 19.5024H20.1996ZM24.0537 3.8439V16.3914H25.9166C27.424 16.3914 28.5759 15.8965 29.3724 14.9069C30.169 13.9172 30.5758 12.5015 30.5929 10.6598V9.66583C30.5929 7.75531 30.1989 6.30951 29.411 5.32843C28.623 4.33875 27.4711 3.8439 25.9551 3.8439H24.0537Z" fill="#141414"/>
<path d="M48.9053 15.6298H42.1477L40.863 19.5024H36.7647L43.7279 0.707031H47.2994L54.3011 19.5024H50.2028L48.9053 15.6298ZM43.1883 12.4929H47.8647L45.5136 5.45752L43.1883 12.4929Z" fill="#141414"/>
</svg>
