<svg width="35" height="35" viewBox="0 0 35 35" fill="none" xmlns="http://www.w3.org/2000/svg">
<path d="M17.5001 16.9008C18.9043 16.9008 20.2771 16.4844 21.4446 15.7042C22.6122 14.9241 23.5223 13.8152 24.0596 12.5178C24.597 11.2205 24.7376 9.79291 24.4637 8.41564C24.1897 7.03838 23.5135 5.77328 22.5205 4.78033C21.5276 3.78737 20.2625 3.11116 18.8852 2.83721C17.508 2.56325 16.0804 2.70386 14.783 3.24124C13.4857 3.77862 12.3768 4.68865 11.5967 5.85624C10.8165 7.02382 10.4001 8.39654 10.4001 9.80078C10.4001 11.6838 11.1481 13.4897 12.4796 14.8212C13.8111 16.1528 15.6171 16.9008 17.5001 16.9008ZM17.5001 4.30078C18.5879 4.30078 19.6513 4.62335 20.5557 5.2277C21.4602 5.83205 22.1651 6.69103 22.5814 7.69603C22.9977 8.70102 23.1066 9.80689 22.8944 10.8738C22.6822 11.9407 22.1584 12.9207 21.3892 13.6899C20.62 14.4591 19.64 14.9829 18.5731 15.1951C17.5062 15.4073 16.4003 15.2984 15.3953 14.8821C14.3903 14.4658 13.5314 13.7609 12.927 12.8564C12.3227 11.952 12.0001 10.8886 12.0001 9.80078C12.0001 8.34209 12.5796 6.94315 13.611 5.9117C14.6425 4.88025 16.0414 4.30078 17.5001 4.30078Z" fill="white" stroke="white" stroke-width="0.2"/>
<path d="M2.6999 31.5013C2.69994 31.7134 2.78422 31.9169 2.93422 32.0669C3.08425 32.2169 3.28773 32.3012 3.4999 32.3012H31.4999V32.3016L31.509 32.3008C31.7285 32.2808 31.9322 32.1782 32.0791 32.0138C32.2256 31.8496 32.3045 31.636 32.2999 31.416C32.2922 27.8871 30.8869 24.5049 28.3916 22.0095C25.896 19.5139 22.5134 18.1086 18.9841 18.1012H18.9839L16.0159 18.1012L16.0156 18.1012C14.2614 18.1067 12.5255 18.4577 10.9069 19.1342C9.28837 19.8106 7.8189 20.7992 6.58243 22.0435C5.34595 23.2879 4.36667 24.7636 3.70051 26.3864C3.03436 28.0091 2.69436 29.7472 2.6999 31.5013ZM2.6999 31.5013C2.6999 31.5013 2.6999 31.5012 2.6999 31.5012H2.7999L2.6999 31.5015C2.6999 31.5014 2.6999 31.5014 2.6999 31.5013ZM18.9699 19.7012H18.9699C21.9747 19.7003 24.8655 20.8511 27.0475 22.9169C29.2039 24.9585 30.5059 27.7402 30.6938 30.7012H4.30597C4.49359 27.745 5.7917 24.9673 7.94222 22.9265C10.1183 20.8614 13.0021 19.7074 16.002 19.7012H18.9699Z" fill="white" stroke="white" stroke-width="0.2"/>
</svg>
