<svg width="45" height="45" viewBox="0 0 45 45" fill="none" xmlns="http://www.w3.org/2000/svg">
<path d="M35.1634 13.7588C35.1356 13.5465 35.0311 13.3517 34.8696 13.2112C34.7081 13.0707 34.5008 12.9941 34.2868 12.996H29.4566V11.2424C29.4566 9.32156 28.6938 7.47944 27.3359 6.12124C25.9779 4.76303 24.1362 4 22.2158 4C20.2954 4 18.4537 4.76303 17.0958 6.12124C15.7379 7.47944 14.975 9.32156 14.975 11.2424V12.996H10.1361C9.92207 12.9941 9.71477 13.0707 9.55329 13.2112C9.39181 13.3517 9.2873 13.5465 9.25949 13.7588L6.00726 38.4319C5.99071 38.5597 6.00255 38.6897 6.04195 38.8124C6.08134 38.9352 6.14732 39.0477 6.23518 39.1421C6.60335 39.5366 7.00659 39.94 7.4449 40.3345C7.60567 40.4807 7.81497 40.5619 8.03223 40.5625H36.3994C36.6167 40.5619 36.826 40.4807 36.9867 40.3345C37.4163 39.94 37.8634 39.5366 38.1965 39.1421C38.2843 39.0477 38.3503 38.9352 38.3897 38.8124C38.4291 38.6897 38.4409 38.5597 38.4244 38.4319L35.1634 13.7588ZM16.7545 11.2248C16.7545 9.76911 17.3327 8.37302 18.3618 7.34368C19.3909 6.31434 20.7867 5.73606 22.2421 5.73606C23.6975 5.73606 25.0933 6.31434 26.1224 7.34368C27.1516 8.37302 27.7297 9.76911 27.7297 11.2248V12.9784H16.7282L16.7545 11.2248ZM36.04 38.8089H8.37411L7.79555 38.2477L10.8988 14.7495H33.5241L36.6273 38.2477L36.04 38.8089Z" fill="white"/>
</svg>
