<svg width="29" height="29" viewBox="0 0 29 29" fill="none" xmlns="http://www.w3.org/2000/svg">
<path d="M28.0375 26.4017L20.1451 18.5093C21.6739 16.6209 22.5944 14.2213 22.5944 11.6079C22.5944 5.55067 17.6658 0.62207 11.6086 0.62207C5.55148 0.62207 0.622986 5.55062 0.622986 11.6078C0.622986 17.6651 5.55153 22.5937 11.6087 22.5937C14.2221 22.5937 16.6216 21.6732 18.51 20.1444L26.4024 28.0369C26.6279 28.2624 26.9239 28.3757 27.2199 28.3757C27.516 28.3757 27.812 28.2624 28.0375 28.0369C28.4897 27.5847 28.4897 26.8539 28.0375 26.4017ZM11.6087 20.2809C6.82585 20.2809 2.93578 16.3907 2.93578 11.6078C2.93578 6.82495 6.82585 2.93484 11.6087 2.93484C16.3915 2.93484 20.2816 6.82495 20.2816 11.6078C20.2816 16.3907 16.3915 20.2809 11.6087 20.2809Z" fill="white" stroke="#141414" stroke-width="0.1"/>
</svg>
